<?xml version="1.0" standalone="no"?>
<!DOCTYPE svg PUBLIC "-//W3C//DTD SVG 20010904//EN"
 "http://www.w3.org/TR/2001/REC-SVG-20010904/DTD/svg10.dtd">
<svg version="1.0" xmlns="http://www.w3.org/2000/svg"
 width="500.000000pt" height="500.000000pt" viewBox="0 0 500.000000 500.000000"
 preserveAspectRatio="xMidYMid meet">

<g transform="translate(0.000000,500.000000) scale(0.100000,-0.100000)"
fill="#000000" stroke="none">
<path d="M1280 3749 c-73 -12 -204 -78 -261 -131 -63 -59 -115 -141 -146 -229
-21 -62 -26 -96 -31 -231 l-5 -158 -59 -32 c-65 -35 -107 -81 -138 -152 -18
-43 -20 -69 -20 -253 l0 -206 -35 -38 c-151 -167 -136 -419 35 -573 39 -35
158 -96 570 -293 108 -52 120 -55 190 -55 85 0 55 -12 444 173 312 149 357
182 424 311 25 48 27 63 27 163 0 125 -14 167 -85 261 l-39 52 -3 208 c-3 179
-6 214 -22 246 -29 59 -92 125 -149 155 l-52 28 -2 166 c-1 181 -8 215 -66
324 -37 69 -122 159 -187 197 -105 61 -265 89 -390 67z m273 -193 c75 -37 143
-106 176 -176 24 -50 26 -68 29 -217 l4 -163 -377 0 -377 0 5 148 c6 184 25
248 100 329 76 83 156 113 287 110 82 -2 103 -6 153 -31z m252 -770 c43 -19
66 -54 68 -108 2 -55 -28 -100 -83 -122 -22 -9 -40 -17 -40 -19 0 -2 8 -21 19
-43 10 -21 24 -55 31 -75 l13 -37 81 -4 c105 -6 179 -40 239 -109 123 -143
112 -341 -26 -464 -134 -121 -334 -112 -457 21 -69 75 -84 116 -84 224 0 83 3
101 26 145 25 48 116 145 137 145 5 0 2 18 -7 41 l-16 41 -30 -35 c-17 -19
-93 -109 -169 -201 -75 -91 -145 -167 -155 -168 -143 -14 -147 -15 -160 -61
-27 -100 -115 -190 -221 -223 -69 -21 -171 -14 -233 16 -59 30 -124 95 -156
155 -24 44 -27 61 -27 145 0 80 4 102 24 140 41 80 87 127 158 162 57 28 77
32 137 32 40 0 86 -7 106 -16 l35 -15 43 65 c23 35 42 72 42 82 0 10 -9 39
-20 64 -15 36 -24 46 -43 46 -13 0 -32 9 -42 20 -15 17 -16 24 -7 45 11 25 13
25 136 25 100 0 128 -3 140 -16 35 -35 3 -74 -61 -74 -41 0 -44 -2 -37 -22 3
-13 9 -25 11 -28 3 -3 108 -6 234 -7 211 -1 229 0 229 16 0 32 26 53 75 62 55
10 81 29 72 53 -5 13 -25 16 -111 16 -101 0 -106 1 -121 24 -20 30 -7 62 27
69 56 11 190 6 223 -7z"/>
<path d="M1213 2463 c2 -5 35 -77 73 -161 l69 -154 30 34 c57 64 220 260 228
274 7 12 -24 14 -198 14 -113 0 -204 -3 -202 -7z"/>
<path d="M1116 2348 l-25 -43 29 -30 c31 -32 80 -128 80 -157 0 -14 9 -18 39
-18 l39 0 -62 140 c-35 77 -66 143 -69 146 -3 3 -17 -14 -31 -38z"/>
<path d="M799 2286 c-99 -35 -159 -123 -159 -230 0 -105 31 -160 119 -217 38
-25 55 -29 112 -29 76 0 123 16 173 60 27 24 76 104 76 124 0 2 -57 5 -126 8
-109 3 -128 7 -140 23 -8 10 -14 22 -14 25 0 4 29 55 65 115 36 59 65 111 65
115 0 21 -118 25 -171 6z"/>
<path d="M1869 2248 c47 -113 75 -210 64 -226 -13 -21 -56 -27 -70 -10 -6 7
-27 60 -47 118 -48 136 -48 137 -75 117 -67 -46 -109 -156 -92 -238 6 -27 17
-62 25 -77 18 -35 72 -85 113 -106 41 -20 148 -21 196 -1 156 65 197 273 77
393 -47 48 -101 72 -159 72 l-50 0 18 -42z"/>
<path d="M1008 2164 l-37 -64 75 0 c41 0 74 2 74 5 0 14 -43 95 -58 108 -16
15 -20 11 -54 -49z"/>
<path d="M2440 2845 l0 -305 118 0 c145 0 183 10 218 56 23 29 27 45 27 102 1
69 -20 128 -49 139 -21 8 -17 24 16 63 25 29 30 43 30 90 0 65 -24 110 -72
140 -28 17 -51 20 -160 20 l-128 0 0 -305z m214 201 c62 -26 67 -108 9 -135
-13 -6 -44 -11 -68 -11 l-43 0 -4 73 c-2 39 -2 75 0 80 5 12 70 8 106 -7z m15
-251 c16 -8 31 -22 35 -30 12 -32 6 -83 -13 -106 -16 -20 -28 -24 -78 -24 -32
0 -59 3 -60 8 -2 4 -3 43 -3 87 l0 80 45 0 c26 0 59 -7 74 -15z"/>
<path d="M2902 2845 l1 -305 48 0 49 0 0 305 0 305 -50 0 -50 0 2 -305z"/>
<path d="M3100 2845 l0 -305 55 0 55 0 0 93 c0 82 3 95 24 122 l24 30 29 -65
c16 -36 40 -91 53 -122 l24 -58 63 0 63 0 -29 58 c-15 31 -52 110 -81 175
l-52 118 71 124 c39 67 71 126 71 129 0 3 -26 6 -58 6 l-58 0 -69 -122 -70
-123 -3 123 -3 122 -54 0 -55 0 0 -305z"/>
<path d="M3550 2845 l0 -305 150 0 150 0 0 50 0 50 -95 0 -95 0 0 79 0 79 80
-5 80 -5 0 56 0 56 -80 0 -80 0 0 75 0 75 95 0 95 0 0 50 0 50 -150 0 -150 0
0 -305z"/>
<path d="M2540 2403 c-50 -18 -79 -37 -89 -59 -7 -16 -11 -100 -11 -239 l0
-215 28 -30 c21 -24 38 -32 78 -37 99 -11 154 40 154 142 l0 45 -45 0 -45 0 0
-53 c0 -42 -4 -55 -20 -65 -23 -14 -54 -3 -64 24 -3 8 -6 98 -6 199 0 154 3
186 16 199 37 38 74 5 74 -65 l0 -49 40 0 40 0 0 69 c0 84 -19 113 -84 130
-25 6 -46 11 -48 10 -2 0 -10 -3 -18 -6z"/>
<path d="M2845 2392 c-31 -11 -50 -25 -68 -52 -15 -21 -17 -54 -17 -236 0
-198 1 -213 21 -237 40 -52 160 -61 208 -16 37 34 41 62 41 261 0 202 -7 239
-51 266 -24 16 -106 24 -134 14z m84 -86 c8 -9 11 -73 9 -207 l-3 -194 -29
-10 c-24 -8 -31 -6 -47 14 -17 21 -19 41 -19 192 0 188 7 219 50 219 15 0 33
-6 39 -14z"/>
<path d="M3100 2115 l0 -285 35 0 35 0 0 160 c0 88 4 160 8 160 5 0 30 -72 58
-160 l49 -160 42 0 c52 0 49 -21 45 313 l-3 257 -34 0 -35 0 -2 -117 c-3 -165
-5 -203 -10 -208 -2 -2 -21 51 -42 118 -59 187 -60 192 -71 199 -5 4 -25 8
-42 8 l-33 0 0 -285z"/>
<path d="M3420 2360 l0 -40 40 0 40 0 0 -245 0 -245 45 0 45 0 0 245 0 245 40
0 40 0 0 40 0 40 -125 0 -125 0 0 -40z"/>
<path d="M3728 2394 c-5 -4 -8 -133 -8 -286 l0 -278 44 0 44 0 -2 113 c-1 105
0 112 19 112 16 0 24 -18 51 -110 l31 -110 41 -3 c50 -4 51 -3 16 103 -44 137
-45 142 -18 160 30 19 42 65 38 135 -9 141 -28 160 -162 167 -48 3 -90 2 -94
-3z m170 -108 c17 -34 8 -129 -13 -146 -8 -6 -29 -10 -47 -8 l-33 3 -3 79 c-4
102 -1 108 45 104 30 -2 41 -9 51 -32z"/>
<path d="M4110 2383 c-62 -32 -70 -63 -70 -271 0 -194 6 -228 49 -267 33 -29
138 -28 178 1 44 32 52 72 52 254 1 185 -7 232 -42 267 -33 33 -118 41 -167
16z m98 -69 c21 -15 22 -20 22 -204 0 -200 -4 -220 -50 -220 -45 0 -50 20 -50
216 0 171 1 185 20 204 24 24 29 24 58 4z"/>
<path d="M4387 2394 c-4 -4 -7 -133 -7 -286 l0 -278 110 0 110 0 0 35 0 35
-65 0 -65 0 -2 248 -3 247 -35 3 c-20 2 -39 0 -43 -4z"/>
</g>
</svg>
