<svg transform="scale(1)" id="CwHS5qrLqF" data-name="0794_Snapchat" xmlns="http://www.w3.org/2000/svg" xmlns:xlink="http://www.w3.org/1999/xlink" viewBox="0 0 500 500" class="pbimage_pbimage__wrapper__image__0LEis false"><title>Snapchat</title><defs><style> .cls-1{fill:#3d3a3a;} .cls-1, .cls-2, .cls-3, .cls-4, .cls-5, .cls-6{stroke-width:0px;} .cls-2{fill:none;} .cls-3{fill:#3b3838;} .cls-4{fill:#68e1fd;} .cls-5{fill:#201d1d;} .cls-7{clip-path:url(#clippath-CwHS5qrLqF);} .cls-6{fill:#fff;}
 .cls-6{fill:#FFFFFF;}
 .cls-5{fill:#201D1D;}
 .cls-4{fill:#4a5e81;}
 .cls-3{fill:#3B3838;}
 .cls-1{fill:#3D3A3A;}</style><clipPath id="clippath-CwHS5qrLqF"><path class="cls-2" d="M158.78,105.22v271.22h253.84V105.22c0-3.28-2.66-5.92-5.92-5.92h-242c-3.27,0-5.91,2.64-5.91,5.92Z"></path></clipPath></defs><g id="Screen2"><g><rect class="cls-3" x="221.84" y="76.45" width="218.45" height="352.04" rx="7.87" ry="7.87" transform="translate(662.13 504.94) rotate(180)"></rect><path class="cls-3" d="M432.42,429.24h-202.72c-4.75,0-8.62-3.87-8.62-8.62V84.31c0-4.75,3.87-8.62,8.62-8.62h202.72c4.75,0,8.62,3.86,8.62,8.62v336.31c0,4.75-3.87,8.62-8.62,8.62ZM229.7,77.2c-3.92,0-7.12,3.19-7.12,7.12v336.31c0,3.92,3.19,7.12,7.12,7.12h202.72c3.92,0,7.12-3.19,7.12-7.12V84.31c0-3.92-3.19-7.12-7.12-7.12h-202.72Z"></path></g><g><rect class="cls-6" x="204.7" y="76.45" width="218.45" height="352.04" rx="7.87" ry="7.87" transform="translate(627.84 504.94) rotate(180)"></rect><path class="cls-3" d="M415.28,429.24h-202.72c-4.75,0-8.62-3.87-8.62-8.62V84.31c0-4.75,3.87-8.62,8.62-8.62h202.72c4.75,0,8.62,3.86,8.62,8.62v336.31c0,4.75-3.87,8.62-8.62,8.62ZM212.56,77.2c-3.92,0-7.12,3.19-7.12,7.12v336.31c0,3.92,3.19,7.12,7.12,7.12h202.72c3.92,0,7.12-3.19,7.12-7.12V84.31c0-3.92-3.19-7.12-7.12-7.12h-202.72Z"></path></g><g><rect class="cls-6" x="204.7" y="76.45" width="218.45" height="352.04" rx="7.87" ry="7.87" transform="translate(627.84 504.94) rotate(180)"></rect><path class="cls-3" d="M415.28,429.24h-202.72c-4.75,0-8.62-3.87-8.62-8.62V84.31c0-4.75,3.87-8.62,8.62-8.62h202.72c4.75,0,8.62,3.86,8.62,8.62v336.31c0,4.75-3.87,8.62-8.62,8.62ZM212.56,77.2c-3.92,0-7.12,3.19-7.12,7.12v336.31c0,3.92,3.19,7.12,7.12,7.12h202.72c3.92,0,7.12-3.19,7.12-7.12V84.31c0-3.92-3.19-7.12-7.12-7.12h-202.72Z"></path></g><g><path class="cls-4" d="M215.23,105.22v271.22h197.38V105.22c0-3.28-2.66-5.92-5.92-5.92h-185.55c-3.27,0-5.91,2.64-5.91,5.92Z"></path><path class="cls-3" d="M412.62,377.18h-197.38c-.41,0-.75-.34-.75-.75V105.22c0-3.68,2.99-6.67,6.66-6.67h185.55c3.68,0,6.67,2.99,6.67,6.67v271.22c0,.41-.34.75-.75.75ZM215.98,375.68h195.88V105.22c0-2.85-2.32-5.17-5.17-5.17h-185.55c-2.85,0-5.16,2.32-5.16,5.17v270.47Z"></path></g><g><g><rect class="cls-6" x="340.54" y="85.9" width="4.65" height="4.08" rx="1.7" ry="1.7" transform="translate(685.73 175.89) rotate(180)"></rect><path class="cls-3" d="M343.48,90.74h-1.24c-1.35,0-2.45-1.1-2.45-2.45v-.68c0-1.35,1.1-2.45,2.45-2.45h1.24c1.35,0,2.45,1.1,2.45,2.45v.68c0,1.35-1.1,2.45-2.45,2.45ZM342.24,86.65c-.53,0-.95.43-.95.95v.68c0,.53.43.95.95.95h1.24c.53,0,.95-.43.95-.95v-.68c0-.53-.43-.95-.95-.95h-1.24Z"></path></g><g><rect class="cls-3" x="282.66" y="85.9" width="53.48" height="4.08" rx="2" ry="2" transform="translate(618.79 175.89) rotate(180)"></rect><path class="cls-3" d="M334.14,90.74h-49.48c-1.52,0-2.75-1.23-2.75-2.75,0-1.6,1.23-2.83,2.75-2.83h49.48c1.52,0,2.75,1.23,2.75,2.75,0,1.6-1.23,2.83-2.75,2.83ZM284.66,86.65c-.69,0-1.25.56-1.25,1.25,0,.77.56,1.33,1.25,1.33h49.48c.69,0,1.25-.56,1.25-1.25,0-.77-.56-1.33-1.25-1.33h-49.48Z"></path></g></g></g><g id="ghost"><g class="cls-7"><g><g><path class="cls-1" d="M220.64,434.89s12.51,2.65,34.45-15.23c21.94-17.88,49.55-15.55,77.73-30.75,28.18-15.2,28.75-32.74,46.81-39.44,18.06-6.7,26.02-3.82,42.92-15.86,16.9-12.04,14.44-22.07,14.44-22.07l-31.44-11.65-175.07,91.1-9.84,43.9Z"></path><path class="cls-3" d="M222.64,435.79c-1.31,0-2.04-.14-2.15-.17-.2-.04-.37-.16-.48-.33s-.14-.37-.1-.57l9.83-43.9c.05-.22.19-.4.38-.5l175.07-91.1c.19-.1.41-.11.61-.04l31.44,11.65c.23.09.41.28.47.52.11.43,2.39,10.67-14.73,22.86-10.91,7.77-18.21,9.41-26.66,11.31-4.67,1.05-9.95,2.24-16.44,4.64-8.34,3.1-12.97,8.68-18.33,15.14-6.28,7.58-13.4,16.17-28.39,24.25-12.61,6.8-24.99,10.08-36.96,13.26-14.7,3.9-28.59,7.58-40.65,17.41-17.02,13.87-28.42,15.55-32.92,15.55ZM220.64,434.89h0,0ZM221.56,434.24c2.99.19,14.72-.21,33.06-15.16,12.31-10.03,26.35-13.76,41.21-17.7,11.89-3.15,24.18-6.41,36.63-13.13,14.74-7.95,21.75-16.42,27.95-23.89,5.49-6.63,10.24-12.36,18.96-15.59,6.58-2.44,11.92-3.64,16.63-4.7,8.29-1.86,15.45-3.47,26.11-11.06,14.4-10.26,14.39-19.02,14.2-20.91l-30.72-11.38-174.46,90.78-9.58,42.75Z"></path></g><g><path class="cls-6" d="M220.64,434.89s9.96-45.04,40.01-36.98c30.05,8.06,55.71-44.07,84.27-49.24,28.56-5.16,43.89-8.83,58.57-26.17,14.68-17.34,24.91-7.58,33.5-10.97,0,0-102.51-60.77-162.89-160.88-37.59-62.32-118.28-16.18-100.84,44.08,38.8,105.63,52.38,176.83,47.38,240.14Z"></path><path class="cls-3" d="M220.64,435.64s-.07,0-.11,0c-.39-.06-.67-.41-.64-.8,5.05-64.01-9.1-135.73-47.34-239.82-9.42-32.55,9.33-59.91,32.72-70.14,11.79-5.16,24.71-6,36.37-2.39,13.14,4.08,24.59,13.69,33.1,27.8,59.59,98.79,161.61,160.01,162.63,160.62.25.15.39.42.37.7-.02.29-.21.53-.47.64-2.92,1.15-5.98.88-9.21.58-6.69-.61-14.27-1.3-23.99,10.17-15.02,17.73-31.38,21.42-59.01,26.42-12.23,2.21-24.27,13.52-35.91,24.45-15.4,14.47-31.33,29.42-48.69,24.77-6.7-1.8-12.92-1-18.48,2.37-14.92,9.05-20.55,33.8-20.61,34.04-.08.35-.39.59-.73.59ZM226.73,121.88c-7.54,0-14.71,1.68-20.85,4.37-22.79,9.96-41.06,36.62-31.9,68.3,36.91,100.48,51.43,170.92,47.89,233.4,2.78-8.24,8.74-21.79,19.33-28.22,5.92-3.59,12.53-4.45,19.65-2.54,16.55,4.44,32.17-10.23,47.27-24.41,11.8-11.08,24.01-22.55,36.67-24.84,28.08-5.08,43.41-8.53,58.13-25.91,10.22-12.07,18.57-11.31,25.27-10.7,2.56.23,4.84.44,6.98-.02-12.68-7.85-105.8-67.56-161.71-160.25-13.02-21.59-30.71-29.18-46.73-29.18Z"></path></g><path class="cls-3" d="M386.07,305.57c-.15,0-.3-.05-.43-.14-49.27-35.2-85.01-86.78-85.37-87.29-.23-.34-.15-.81.19-1.04.34-.23.81-.15,1.04.19.35.51,35.96,51.88,85,86.92.34.24.42.71.17,1.05-.15.21-.38.31-.61.31Z"></path><path class="cls-3" d="M261.25,378.06c-.4,0-.73-.31-.75-.71-1.97-36.2-18.78-89.59-18.95-90.13-.12-.4.09-.82.49-.94.39-.13.82.09.94.49.17.54,17.03,54.11,19.02,90.5.02.41-.29.77-.71.79-.01,0-.03,0-.04,0Z"></path><path class="cls-3" d="M226.45,322.91c-.41,0-.75-.33-.75-.74-.22-22.15-6.62-45.59-6.68-45.82-.11-.4.12-.81.52-.92.4-.11.81.12.92.52.07.24,6.52,23.86,6.73,46.21,0,.41-.33.75-.74.76h0Z"></path><g><g><ellipse class="cls-1" cx="221.07" cy="200.34" rx="6.37" ry="13.38" transform="translate(-67.52 124.66) rotate(-27.49)"></ellipse><path class="cls-3" d="M225.72,213.32c-3.45,0-7.9-3.81-10.96-9.69-1.7-3.27-2.69-6.67-2.8-9.57-.11-3.1.81-5.32,2.59-6.25,1.78-.93,4.13-.41,6.6,1.46,2.32,1.75,4.54,4.52,6.24,7.78,3.66,7.03,3.75,13.98.21,15.82-.58.3-1.21.44-1.88.44ZM216.44,188.87c-.44,0-.84.09-1.19.27-1.22.64-1.87,2.41-1.79,4.86.09,2.69,1.03,5.86,2.63,8.93,3.16,6.07,8.11,10.02,10.82,8.61,2.7-1.41,2.32-7.73-.84-13.8h0c-1.6-3.07-3.66-5.66-5.81-7.28-1.4-1.05-2.72-1.6-3.81-1.6Z"></path></g><g><ellipse class="cls-1" cx="249.08" cy="185.77" rx="6.37" ry="13.38" transform="translate(-57.63 135.94) rotate(-27.49)"></ellipse><path class="cls-3" d="M253.7,198.76c-1.42,0-3.04-.65-4.71-1.91-2.32-1.75-4.54-4.52-6.24-7.78-3.66-7.03-3.75-13.98-.21-15.82,3.54-1.84,9.18,2.22,12.84,9.25h0c1.7,3.27,2.69,6.67,2.8,9.57.11,3.1-.81,5.32-2.59,6.25-.58.3-1.21.45-1.89.45ZM244.47,174.28c-.44,0-.86.09-1.23.29-2.7,1.41-2.32,7.73.84,13.8,1.6,3.07,3.66,5.66,5.81,7.28,1.96,1.48,3.79,1.97,5.01,1.33,1.22-.64,1.87-2.41,1.79-4.86-.1-2.69-1.03-5.86-2.63-8.93h0c-2.73-5.24-6.79-8.89-9.59-8.89Z"></path></g></g><g><path class="cls-6" d="M299,244.19s16.4,31.69,46.59,65.9"></path><path class="cls-3" d="M345.58,310.83c-.21,0-.41-.09-.56-.25-29.91-33.88-46.53-65.73-46.69-66.05-.19-.37-.05-.82.32-1.01.37-.19.82-.05,1.01.32.16.32,16.71,32.01,46.48,65.74.27.31.24.78-.07,1.06-.14.13-.32.19-.5.19Z"></path></g></g></g></g><g id="chatbaloon"><g><path class="cls-4" d="M154.31,142.32c9.77-7.51,15.81-17.8,15.81-29.16,0-23-24.72-41.65-55.2-41.65s-55.2,18.65-55.2,41.65,24.71,41.65,55.2,41.65c10.45,0,20.22-2.19,28.54-5.99,5.57,4.96,12.83,9.74,21.4,11.66,0,0-6.14-9.32-10.55-18.15Z"></path><path class="cls-3" d="M164.86,161.23c-.05,0-.11,0-.16-.02-7.35-1.65-14.54-5.52-21.37-11.51-8.58,3.84-18.39,5.86-28.41,5.86-30.85,0-55.95-19.02-55.95-42.4s25.1-42.4,55.95-42.4,55.95,19.02,55.95,42.4c0,11.03-5.54,21.44-15.61,29.38,4.32,8.53,10.17,17.44,10.23,17.53.17.26.17.59,0,.84-.14.21-.37.32-.62.32ZM143.46,148.06c.18,0,.36.06.5.19,6.18,5.5,12.65,9.2,19.25,11.03-1.95-3.06-6.26-10.01-9.56-16.63-.16-.32-.07-.71.21-.93,10-7.69,15.51-17.84,15.51-28.57,0-22.55-24.43-40.9-54.45-40.9s-54.45,18.35-54.45,40.9,24.43,40.9,54.45,40.9c9.98,0,19.74-2.05,28.23-5.93.1-.05.21-.07.31-.07Z"></path></g><g><circle class="cls-3" cx="91.81" cy="111.13" r="4.87"></circle><circle class="cls-3" cx="114.91" cy="111.13" r="4.87"></circle><circle class="cls-3" cx="138.02" cy="111.13" r="4.87"></circle></g></g><g id="Screen1"><g><path class="cls-6" d="M215.23,376.43v34.86c0,3.28,2.65,5.92,5.91,5.92h185.55c3.27,0,5.92-2.64,5.92-5.92v-34.86h-197.38Z"></path><path class="cls-5" d="M406.69,417.97h-185.55c-3.67,0-6.66-2.99-6.66-6.67v-34.86c0-.41.34-.75.75-.75h197.38c.41,0,.75.34.75.75v34.86c0,3.68-2.99,6.67-6.67,6.67ZM215.98,377.18v34.11c0,2.85,2.32,5.17,5.16,5.17h185.55c2.85,0,5.17-2.32,5.17-5.17v-34.11h-195.88Z"></path></g></g></svg>