<svg transform="scale(1)" version="1.1" id="X2Rgj29TKH" xmlns="http://www.w3.org/2000/svg" xmlns:xlink="http://www.w3.org/1999/xlink" x="0px" y="0px" viewBox="0 0 500 500" xml:space="preserve" class="pbimage_pbimage__wrapper__image__0LEis false"><title>Office Work 2</title><style type="text/css"> .st0{fill:#D1D3D4;} .st1{fill:#FFFFFF;} .st2{fill:#241F20;} .st3{fill:#68E1FD;}
 .st3{fill:#4a5e81;}
 .st2{fill:#241F20;}
 .st1{fill:#FFFFFF;}
 .st0{fill:#D1D3D4;}</style><g id="Window"><path class="st0" d="M432.8,280.6H78.6c-0.4,0-0.7-0.3-0.7-0.7V94.3c0-0.4,0.3-0.7,0.7-0.7c0,0,0,0,0,0h354.3
		c0.4,0,0.7,0.3,0.7,0.7c0,0,0,0,0,0v185.6C433.6,280.3,433.2,280.6,432.8,280.6C432.9,280.6,432.8,280.6,432.8,280.6L432.8,280.6z
		 M79.3,279.2h352.9V95H79.3V279.2z" fill="#D1D3D4"></path><path class="st0" d="M255.7,278.9c-0.4,0-0.7-0.3-0.7-0.7V94.3c0-0.4,0.3-0.7,0.7-0.7c0.4,0,0.7,0.3,0.7,0.7v183.9
		C256.4,278.5,256.1,278.9,255.7,278.9C255.7,278.9,255.7,278.9,255.7,278.9z" fill="#D1D3D4"></path><path class="st0" d="M165.5,278.9c-0.4,0-0.7-0.3-0.7-0.7V94.3c0-0.4,0.3-0.7,0.7-0.7c0.4,0,0.7,0.3,0.7,0.7v183.9
		C166.2,278.5,165.9,278.9,165.5,278.9C165.5,278.9,165.5,278.9,165.5,278.9L165.5,278.9z" fill="#D1D3D4"></path><path class="st0" d="M342.2,278.9c-0.4,0-0.7-0.3-0.7-0.7c0,0,0,0,0,0V94.3c0-0.4,0.3-0.7,0.7-0.7c0.4,0,0.7,0.3,0.7,0.7v183.9
		C343,278.6,342.6,278.9,342.2,278.9L342.2,278.9z" fill="#D1D3D4"></path><path class="st0" d="M432.8,157.5H78.6c-0.4,0-0.7-0.3-0.7-0.7c0-0.4,0.3-0.7,0.7-0.7h354.3c0.4,0,0.7,0.3,0.7,0.7
		S433.2,157.5,432.8,157.5C432.8,157.5,432.8,157.5,432.8,157.5z" fill="#D1D3D4"></path><path class="st0" d="M432.8,218.2H78.6c-0.4,0-0.7-0.3-0.7-0.7c0-0.4,0.3-0.7,0.7-0.7c0,0,0,0,0,0h354.3c0.4,0,0.7,0.3,0.7,0.7
		S433.2,218.2,432.8,218.2C432.8,218.2,432.8,218.2,432.8,218.2z" fill="#D1D3D4"></path><path class="st0" d="M310.4,131.2c-0.1,0-0.3-0.1-0.4-0.2l-8.7-6.7c-0.3-0.2-0.4-0.6-0.2-0.9c0,0,0,0,0-0.1c0.2-0.3,0.7-0.4,1-0.1
		c0,0,0,0,0,0l8.7,6.6c0.3,0.2,0.4,0.7,0.2,1c0,0,0,0,0,0C310.9,131,310.7,131.2,310.4,131.2L310.4,131.2z" fill="#D1D3D4"></path><path class="st0" d="M396.1,121.9c-0.2,0-0.3-0.1-0.5-0.2l-7.2-6.1c-0.3-0.3-0.3-0.7-0.1-1c0.2-0.3,0.7-0.3,1-0.1c0,0,0,0,0,0
		l7.2,6.1c0.3,0.3,0.3,0.7,0.1,1C396.5,121.8,396.3,121.9,396.1,121.9L396.1,121.9z" fill="#D1D3D4"></path><path class="st0" d="M408.2,247.5c-0.2,0-0.4-0.1-0.5-0.2l-6.2-5.8c-0.3-0.3-0.2-0.7,0.1-1c0.3-0.2,0.6-0.2,0.9,0l6.2,5.8
		c0.3,0.3,0.3,0.7,0,1c0,0,0,0,0,0C408.6,247.5,408.4,247.6,408.2,247.5L408.2,247.5z" fill="#D1D3D4"></path><path class="st0" d="M402,251c-0.2,0-0.3-0.1-0.5-0.2l-3.8-3.5c-0.3-0.3-0.3-0.7,0-1c0.3-0.3,0.7-0.3,1,0l3.8,3.5
		c0.3,0.3,0.3,0.7,0,1C402.4,250.9,402.2,251,402,251L402,251z" fill="#D1D3D4"></path><path class="st0" d="M125.5,123.5c-0.2,0-0.4-0.1-0.6-0.3l-3.4-4.6c-0.2-0.3-0.2-0.8,0.2-1c0.3-0.2,0.8-0.2,1,0.2c0,0,0,0,0,0
		l3.4,4.6c0.2,0.3,0.2,0.8-0.1,1c0,0,0,0,0,0C125.8,123.5,125.7,123.5,125.5,123.5L125.5,123.5z" fill="#D1D3D4"></path><path class="st0" d="M122.1,133.1c-0.3,0-0.5-0.1-0.6-0.4l-3.4-5.8c-0.2-0.3-0.2-0.8,0.1-1s0.8-0.2,1,0.1c0,0,0.1,0.1,0.1,0.1
		l3.4,5.8c0.2,0.3,0.1,0.8-0.2,1c0,0,0,0,0,0C122.4,133.1,122.3,133.2,122.1,133.1L122.1,133.1z" fill="#D1D3D4"></path></g><g id="Monitor"><g id="Screen_2"><path class="st1" d="M327.9,273.6c0,0,1.9,44.2-3.1,58.8h-22.7c-2.4,0-4.5,1.6-5.2,3.9l-1.2,4.1h57.7c4.3-2.9,8-6.6,10.7-11.1
			c3.9-6.8,1.5-55.6,1.5-55.6H327.9z"></path><path class="st2" d="M353.4,341h-57.7c-0.4,0-0.8-0.3-0.8-0.8c0-0.1,0-0.2,0-0.2l1.2-4.1c0.8-2.6,3.2-4.4,5.9-4.4h22.1
			c4.7-14.8,2.9-57.5,2.9-58c0-0.2,0.1-0.4,0.2-0.5c0.1-0.2,0.3-0.2,0.5-0.2h37.6c0.4,0,0.7,0.3,0.8,0.7c0.1,2,2.4,49.1-1.6,56
			c-2.8,4.5-6.5,8.4-10.9,11.3C353.7,340.9,353.5,341,353.4,341z M296.7,339.5h56.4c4.1-2.8,7.6-6.4,10.2-10.7
			c2.9-5.2,2.2-37.5,1.4-54.5h-36.1c0.2,6.2,1.5,44.6-3.2,58.2c-0.1,0.3-0.4,0.5-0.7,0.5h-22.7c-2.1,0-3.9,1.3-4.5,3.3L296.7,339.5z
			"></path><path class="st1" d="M336.7,339.6H358c4.9,0,9.1-7.7,9.2-17.2c0.2-8.4,0-42.8,0-48.1h-3.6c0,5.2-0.2,38-0.2,46.5
			s-2.3,12.7-7.1,12.7h-14.5c-1.7,0-3.3,1.1-3.9,2.7L336.7,339.6L336.7,339.6z"></path><path class="st2" d="M358,340.3h-21.3c-0.2,0-0.5-0.1-0.6-0.3c-0.1-0.2-0.2-0.5-0.1-0.7l1.3-3.4c0.7-1.9,2.5-3.2,4.6-3.2h14.5
			c4.3,0,6.4-3.9,6.4-11.9c0-6.7,0.1-28.6,0.1-40.3v-6.1c0-0.4,0.3-0.8,0.8-0.8h3.6c0.4,0,0.8,0.3,0.8,0.8v0.9
			c0.1,32.4,0.1,43.6,0,47.3C367.8,332.5,363.4,340.3,358,340.3z M337.8,338.8H358c4.4,0,8.3-7.5,8.5-16.5c0.1-3.7,0.1-14.9,0-47.2
			V275h-2.1v5.4c0,11.8-0.1,33.6-0.1,40.3c0,8.9-2.7,13.4-7.9,13.4h-14.5c-1.4,0-2.7,0.9-3.2,2.2L337.8,338.8z"></path><path class="st1" d="M284.9,170.2l-8.7,99.8c-0.5,4.3,2.5,8.3,6.9,8.8c0.3,0,0.6,0.1,1,0.1h119c4.9-0.2,8.9-4,9.4-8.9l8.7-99.8
			c0.6-4.3-2.5-8.3-6.8-8.9c-0.3,0-0.7-0.1-1-0.1h-119C289.4,161.5,285.3,165.3,284.9,170.2L284.9,170.2z"></path><path class="st2" d="M403,279.7H284c-2.4,0-4.7-1-6.3-2.7c-1.7-1.9-2.6-4.4-2.3-7l8.7-99.8c0.5-5.3,4.8-9.4,10.1-9.6h119
			c2.4,0,4.7,1,6.3,2.7c1.7,1.9,2.5,4.4,2.3,7l-8.8,99.7C412.6,275.3,408.3,279.4,403,279.7z M294.3,162c-4.5,0.2-8.2,3.7-8.6,8.2
			l0,0l-8.7,99.8c-0.2,2.1,0.5,4.3,1.9,5.9c1.3,1.4,3.2,2.3,5.2,2.2h119c4.5-0.2,8.2-3.7,8.6-8.2l8.7-99.8c0.2-2.1-0.5-4.3-1.9-5.9
			c-1.3-1.4-3.2-2.3-5.2-2.2L294.3,162z M284.9,170.2L284.9,170.2z"></path><path class="st1" d="M284.5,169.8l-8.3,95.3c-0.5,4.1,2.4,7.9,6.5,8.5c0.3,0,0.6,0.1,0.9,0.1h113.6c4.7-0.2,8.5-3.8,9-8.5
			l8.3-95.3c0.5-4.1-2.4-7.9-6.5-8.5c-0.3,0-0.6-0.1-0.9-0.1H293.5C288.8,161.5,284.9,165.1,284.5,169.8z"></path><path class="st2" d="M397.2,274.3H283.6c-2.3,0-4.5-0.9-6-2.6c-1.6-1.8-2.4-4.3-2.2-6.7l8.3-95.3l0,0c0.5-5.1,4.6-9,9.7-9.2h113.6
			c2.3,0,4.5,0.9,6,2.6c1.6,1.8,2.4,4.3,2.2,6.7l-8.3,95.3C406.5,270.2,402.3,274.2,397.2,274.3z M285.2,169.9l-8.3,95.3
			c-0.2,2,0.4,4.1,1.8,5.6c1.3,1.4,3,2.1,4.9,2.1h113.6c4.3-0.2,7.8-3.5,8.2-7.8l8.3-95.3c0.2-2-0.4-4.1-1.8-5.6
			c-1.3-1.4-3-2.1-4.9-2.1H293.5C289.2,162.2,285.6,165.6,285.2,169.9L285.2,169.9z"></path><path class="st1" d="M277.6,249.1l-1.4,16c-0.5,4.1,2.4,7.9,6.5,8.5c0.3,0,0.6,0.1,0.9,0.1h113.6c4.7-0.2,8.5-3.8,9-8.5l1.4-16
			H277.6L277.6,249.1z"></path><path class="st2" d="M397.2,274.3H283.6c-2.3,0-4.5-0.9-6-2.6c-1.7-1.8-2.5-4.3-2.2-6.7l1.4-16c0-0.4,0.4-0.7,0.8-0.7h130
			c0.2,0,0.4,0.1,0.5,0.2c0.1,0.2,0.2,0.4,0.2,0.6l-1.4,16C406.5,270.2,402.3,274.2,397.2,274.3z M278.2,249.8l-1.3,15.3
			c-0.2,2,0.4,4.1,1.8,5.6c1.3,1.4,3,2.1,4.9,2.1h113.6c4.3-0.2,7.8-3.5,8.2-7.8l1.3-15.2L278.2,249.8z"></path><ellipse class="st1" transform="matrix(0.5567 -0.8307 0.8307 0.5567 -65.6836 399.5266)" cx="341.5" cy="261.3" rx="5.7" ry="5.2"></ellipse><path class="st2" d="M341,267.6c-1.1,0-2.2-0.3-3.1-0.9c-1.3-0.9-2.2-2.3-2.4-3.9c-0.2-1.7,0.2-3.3,1.1-4.7l0,0
			c1.6-2.9,5.2-3.9,8.1-2.3c2.9,1.6,3.9,5.2,2.3,8.1c-0.2,0.3-0.3,0.5-0.5,0.8C345.2,266.4,343.2,267.5,341,267.6z M342,256.5
			c-1.7,0-3.2,0.9-4.1,2.3l0,0c-0.7,1.1-1,2.4-0.9,3.7c0.2,1.2,0.8,2.2,1.8,2.9c2.5,1.2,5.5,0.1,6.6-2.4c0.9-2,0.4-4.3-1.1-5.8
			C343.6,256.8,342.8,256.5,342,256.5z M337.2,258.4L337.2,258.4z"></path><path class="st2" d="M405.4,167.6H294c-2.4,0.1-4.4,2-4.6,4.4l-5.9,67.2c-0.3,2.1,1.2,4.1,3.4,4.4c0.2,0,0.3,0,0.5,0h111.4
			c2.4-0.1,4.4-2,4.6-4.4l5.9-67.2c0.3-2.1-1.2-4.1-3.4-4.4C405.7,167.7,405.6,167.6,405.4,167.6z"></path></g><path class="st1" d="M302.5,194.6h89.6c0.6,0,1.2,0.5,1.2,1.2c0,0,0,0.1,0,0.1l-3.3,38c-0.2,1.9-1.7,3.3-3.6,3.4h-85.4
		c-1.7,0-3-1.3-3-3c0-0.1,0-0.3,0-0.4l3.3-38.2C301.3,195,301.8,194.5,302.5,194.6z"></path><path class="st1" d="M394.4,182.3l-0.5,5.8c-0.1,1.7-1.5,2.9-3.2,2.9h-85.5c-1.8,0-3.2-1.4-3.2-3.2c0-0.1,0-0.2,0-0.3l0.5-5.3
		c0.2-1.9,1.7-3.3,3.6-3.4h85.4c1.7,0,3,1.3,3,3C394.4,182,394.4,182.1,394.4,182.3z"></path><path class="st2" d="M390.7,191.5h-85.5c-2,0-3.7-1.7-3.7-3.7c0-0.1,0-0.2,0-0.3l0.5-5.3c0.2-2.1,1.9-3.8,4.1-3.9h85.4
		c1,0,1.9,0.4,2.5,1.1c0.7,0.8,1,1.8,0.9,2.8l0,0l-0.5,5.9C394.2,190.1,392.6,191.5,390.7,191.5z M306,179.4
		c-1.6,0.1-2.9,1.3-3.1,2.9l-0.5,5.3c-0.1,0.8,0.2,1.5,0.7,2.1c0.5,0.6,1.2,0.9,2,0.9h85.5c1.4,0,2.6-1.1,2.7-2.5l0.5-5.8
		c0.1-0.8-0.2-1.5-0.7-2.1c-0.5-0.5-1.1-0.8-1.8-0.8L306,179.4z"></path><path class="st2" d="M381.9,202.7h-72.8c-0.4,0-0.8-0.3-0.8-0.8s0.3-0.8,0.8-0.8h72.8c0.4,0,0.8,0.3,0.8,0.8
		S382.3,202.7,381.9,202.7z"></path><path class="st2" d="M347.1,211h-38c-0.4,0-0.8-0.3-0.8-0.8s0.3-0.8,0.8-0.8h38c0.4,0,0.8,0.3,0.8,0.8S347.5,211,347.1,211z"></path><path class="st2" d="M385.8,185.5h-75.9c-0.4,0-0.8-0.3-0.8-0.8s0.3-0.8,0.8-0.8h75.9c0.4,0,0.8,0.3,0.8,0.8
		S386.2,185.5,385.8,185.5z"></path></g><g id="Keyboard"><polygon class="st1" points="377.1,341.1 246.1,341.1 246.1,334.6 279.6,332.1 377.1,332.1 	"></polygon><path class="st2" d="M377.1,341.9H246.1c-0.4,0-0.7-0.3-0.8-0.7c0,0,0,0,0,0v-6.5c0-0.4,0.3-0.7,0.7-0.8l33.4-2.5h97.6
		c0.4,0,0.8,0.3,0.8,0.8v9C377.8,341.5,377.5,341.9,377.1,341.9C377.1,341.9,377.1,341.9,377.1,341.9z M246.9,340.4h129.4v-7.5
		h-96.8l-32.7,2.5V340.4z"></path><polygon class="st1" points="377.1,341.1 343.6,341.1 343.6,334.6 377.1,332.1 	"></polygon><path class="st2" d="M377.1,341.9h-33.5c-0.4,0-0.8-0.3-0.8-0.8v-6.5c0-0.4,0.3-0.7,0.7-0.8l33.4-2.5c0.2,0,0.4,0.1,0.6,0.2
		c0.2,0.1,0.2,0.3,0.2,0.5v9C377.8,341.5,377.5,341.9,377.1,341.9C377.1,341.9,377.1,341.9,377.1,341.9z M344.4,340.4h32v-7.5
		l-32,2.4V340.4z"></path><rect class="st1" x="246.1" y="334.6" width="97.5" height="6.5"></rect><path class="st2" d="M343.6,341.9h-97.5c-0.4,0-0.7-0.3-0.8-0.7c0,0,0,0,0,0v-6.5c0-0.4,0.3-0.8,0.8-0.8h97.5
		c0.4,0,0.8,0.3,0.8,0.8v6.5C344.4,341.6,344,341.9,343.6,341.9C343.6,341.9,343.6,341.9,343.6,341.9z M246.9,340.4h96v-5h-96V340.4
		z"></path></g><g id="desk"><rect class="st1" x="115.4" y="352.5" width="330" height="62.9"></rect><path class="st2" d="M445.4,416.2h-330c-0.4,0-0.8-0.3-0.8-0.8v-62.9c0-0.4,0.3-0.8,0.8-0.8h330c0.4,0,0.8,0.3,0.8,0.8v62.9
		C446.2,415.9,445.8,416.2,445.4,416.2z M116.1,414.7h328.5v-61.4H116.1L116.1,414.7z"></path><path class="st1" d="M114.5,341.4h331.7c3.1,0,5.6,2.5,5.6,5.6v0c0,3.1-2.5,5.6-5.6,5.6H114.5c-3.1,0-5.6-2.5-5.6-5.6v0
		C109,343.9,111.5,341.4,114.5,341.4z"></path><path class="st2" d="M446.3,353.3H114.6c-3.5-0.1-6.2-3.1-6.1-6.6c0.1-3.3,2.8-5.9,6.1-6.1h331.7c3.5,0.1,6.2,3.1,6.1,6.6
		C452.2,350.5,449.6,353.1,446.3,353.3z M114.6,342.1c-2.7,0.1-4.7,2.4-4.6,5c0.1,2.5,2.1,4.5,4.6,4.6h331.7c2.7-0.1,4.7-2.4,4.6-5
		c-0.1-2.5-2.1-4.5-4.6-4.6H114.6z"></path></g><g id="plant"><path class="st2" d="M75.9,336.6c0.1-3.5-0.3-7.2-2.2-10.2c-1.4-2.3-3.5-4.1-4.6-6.5c-1.9-4.1-0.6-9-1-13.6
		c-0.4-3.8-2.1-7.4-4.8-10.1c-2.4-2.4-5.5-4.1-7.7-6.6c-3.7-4.1-4.8-9.9-6.9-15.1c-3-7.3-8.2-13.4-14.9-17.5
		c4.1,8.2-5.2,18.6-1,26.7c1.3,2.6,3.9,4.4,4.8,7.2c2.3,6.6-5.5,13.7-3,20.2c1.3,3.3,4.8,5.1,6.4,8.2c2.2,4.2,0.5,9.2,0.7,13.9
		c0.2,6.5,4.2,12.3,8.9,16.8c2.9,2.8,6.2,5.2,9.3,7.8c3.8,3,5.4,6.2,8.7,1.4C73.2,352.6,75.7,344.7,75.9,336.6L75.9,336.6z"></path><path class="st2" d="M80.1,340.3c-1.2-5-2.1-10.5,0-15.2c2.3-5.4,8.1-9.1,8.8-15c0.4-3.8-1.5-7.6-0.7-11.4s3.8-6.3,6.4-9.1
		c5.8-6.4,9.3-14.6,9.8-23.2c3.7,4.8,7.3,9.7,9.3,15.5s2,12.4-1.3,17.4c-1,1.2-1.8,2.5-2.4,3.9c-1.2,3.7,2,7.1,3.7,10.7
		c1.9,4,1.6,9.1-1.2,12.6c-3.3,4.1-9.7,5.8-11.4,10.8c-0.6,1.8-0.4,3.8-0.6,5.7c-0.5,6.5-5.7,12.9-12.1,14.4c-3.9,1-3.9-0.6-4.6-3.9
		C82.8,349,81.2,344.8,80.1,340.3L80.1,340.3z"></path><path class="st2" d="M67.6,304.2c-2.8-9.6-3.9-19.7-6.8-29.3c-2.3-7.6-5.8-14.7-9.1-21.9c4,1.7,8,3.4,12,5s8,3.5,9.8,7.3
		c3.2,6.5-2.5,14.9,0.8,21.4c1.2,2.3,3.3,3.9,4.7,6c3.5,5,3,11.8,1,17.5c-0.8,2.5-4.5,15.3-7.7,11.7c-1.3-1.4-1.4-6.7-2-8.7
		C69.4,310.2,68.4,307.2,67.6,304.2L67.6,304.2z"></path><path class="st2" d="M66.6,361.4c0.8,6,4.6,34.1,7.4,54.1h-2.5c-2.8-20.3-6.7-48.8-7.4-54.1c-0.1-0.5-0.1-0.8-0.1-0.9l2.4-0.3
		C66.5,360.3,66.5,360.7,66.6,361.4z"></path><path class="st2" d="M89,353.6c-0.7,1.2-1.2,2.6-1.4,4c-2,8.1-4.7,27-6.8,45.8c-0.5,4.1-0.9,8.1-1.3,12.1H77
		c0.4-4,0.8-8.2,1.3-12.3c0.5-4.8,1.1-9.6,1.7-14.2c1.7-13.1,3.5-24.9,5.2-31.6c0.7-2.8,1.4-4.8,2-5.4L89,353.6z"></path><path class="st2" d="M81.2,415.5h-2.4c-0.1-4-0.3-8.1-0.5-12.3c-0.9-19.7-2.4-40.6-3.8-56.8c-0.8-9-1.4-16.5-1.9-21.6
		c-0.1-1.1-0.2-2-0.3-2.9c-0.2-2.6-0.4-4.2-0.4-4.3l2.4-0.2c0,0.1,0.2,1.7,0.4,4.5c1,10.6,3.6,38.6,5.2,67.1
		c0.3,4.8,0.5,9.7,0.8,14.5C80.9,407.5,81.1,411.5,81.2,415.5z"></path></g><g id="Character"><path class="st1" d="M250.8,359.3c0,0,62.9,15.1,64.8,26.2s-3,32.9-3,32.9h-162c0,0-7.7-45.8,0-63.2S250.8,359.3,250.8,359.3
		L250.8,359.3z"></path><path class="st2" d="M312.6,419.1h-162c-0.4,0-0.7-0.3-0.7-0.6c-0.3-1.9-7.6-46.2,0.1-63.7c7.9-17.8,97.3,2.8,101.1,3.7h0.1
		c7.1,1.7,63.3,15.6,65.2,26.8s-2.8,32.3-3,33.2C313.3,418.9,313,419.2,312.6,419.1z M151.2,417.6H312c0.8-3.5,4.6-22.2,2.9-32
		c-1.5-8.7-46.9-21.4-64.3-25.6h-0.1c-4.1-0.9-92-20.9-99.3-4.5C144.2,371.4,150.3,412.1,151.2,417.6z"></path><path class="st1" d="M277,287.3l8.4,20.5c0,0,25-14.2,31.7-15.2c18.9-2.9,25.9,9.2,26.2,11.3s-18.3-0.2-18.3-0.2s7.9,2.8,7.1,6.2
		c-0.4,1.9-9.2-2.7-10.6-2.2s-39.3,29.7-52.6,32.6s-44-63.9-44-63.9"></path><path class="st2" d="M268,341.1c-14.1,0-42.6-61.7-43.9-64.4c-0.2-0.4,0-0.8,0.4-1c0.4-0.2,0.8,0,1,0.4c0,0,0,0,0,0
		c8.4,18.4,32.7,65.7,43.1,63.5c10.2-2.2,35.8-20.6,46.7-28.5c4.5-3.2,5.5-3.9,5.9-4.1c0.8-0.3,2.2,0.2,4.9,1.2
		c1.6,0.6,4.5,1.6,5.3,1.5c0.2-2.2-4.9-4.6-6.7-5.2c-0.4-0.1-0.6-0.6-0.4-1c0.1-0.3,0.4-0.5,0.8-0.5c7.3,0.9,15.7,1.4,17.4,0.8
		c-1.2-2.7-3.2-5.1-5.8-6.7c-3.5-2.5-9.8-5.1-19.5-3.7c-6.5,1-31.2,15-31.4,15.2c-0.2,0.1-0.4,0.1-0.6,0.1c-0.2-0.1-0.4-0.2-0.4-0.4
		l-8.4-20.5c-0.1-0.4,0.1-0.8,0.5-1c0.4-0.1,0.8,0,0.9,0.4l8,19.7c4.3-2.4,25-14,31.2-14.9c10.2-1.5,16.9,1.3,20.6,3.9
		c4.4,3.1,6.3,6.8,6.5,8c0,0.3-0.1,0.7-0.3,0.9c-1.2,1.2-8.7,0.8-14.4,0.2c2,1.2,4,3,3.5,5.1c-0.1,0.4-0.3,0.7-0.6,0.9
		c-1.1,0.6-3.2-0.1-6.6-1.3c-1.3-0.5-2.6-0.9-4-1.2c-0.3,0.2-2.7,1.9-5.4,3.9c-11.9,8.6-36.7,26.5-47.2,28.8
		C268.7,341.1,268.4,341.1,268,341.1z"></path><path class="st0" d="M195.4,196.6c-1.5-0.6-2.9-1.5-4.1-2.6c-1.6-1.7-2.9-3.6-3.8-5.8c-5-10.9-8.7-23.8-7-35.7
		c0.7-5.1,0.8-14.6,12.9-20c0.6-0.2,18.9-7.9,26.4-7.6c6.3,0.3,13.9,3,18,8c1.7,2.1,2.3,3.7,5,4.6c13.9,5.8,12.8,13.5,10,20.4
		c-6.5,15.9-19.4,11-22.1,15.2c-2.9,4.4-5.7,9.1-9.6,12.8C215,191.8,204.1,199.9,195.4,196.6L195.4,196.6z"></path><path class="st2" d="M199.7,197.9c-1.5,0-3.1-0.3-4.5-0.8l-0.7-0.3l0,0c-1.3-0.6-2.5-1.4-3.5-2.4c-1.7-1.7-3-3.7-3.9-5.9
		c-4.3-9.2-9-22.9-7.1-35.9c0.1-0.4,0.1-0.9,0.2-1.4c0.6-5.2,1.7-13.9,13-19l1-0.4c12.6-5,21.2-7.4,25.6-7.2
		c6,0.2,14.1,2.9,18.4,8.2c0.4,0.5,0.7,0.9,1,1.3c0.8,1.4,2.2,2.6,3.7,3.1c14.1,5.9,13.3,13.6,10.3,21.1c-4.4,10.9-12,12.3-17,13.2
		c-2.4,0.4-4.4,0.8-5.2,2l-1,1.6c-2.5,3.9-5.2,8-8.6,11.3C217.5,190.1,208.3,197.9,199.7,197.9z M196.1,196.3
		c9.1,2.9,20.2-6.5,24.7-10.8c3.4-3.2,6-7.2,8.5-11.1l1-1.6c1-1.6,3.1-2,5.8-2.5c5.1-0.9,12-2.2,16.2-12.6
		c2.6-6.5,4.2-13.9-9.8-19.8c-1.7-0.6-3.2-1.9-4.2-3.5c-0.3-0.4-0.6-0.9-1-1.3c-4.1-5.1-11.8-7.6-17.6-7.8c-2.9-0.1-9.7,1-25.2,7.2
		l-1,0.4c-10.7,4.8-11.7,12.8-12.4,18.2c-0.1,0.5-0.1,1-0.2,1.5c-1.9,12.8,2.8,26.3,7,35.4c0.9,2.1,2.1,4,3.7,5.6
		c1.1,1.1,2.4,1.9,3.9,2.5L196.1,196.3z"></path><path class="st1" d="M240.6,176.3c0,0,7.2,14.1,5.2,16.6s-7.9,0.1-7.9,0.1"></path><path class="st2" d="M242.7,194.5c-1.7-0.1-3.4-0.5-5-1.1l0.4-0.9c1.5,0.6,5.8,1.9,7.3,0.1c1.4-1.6-2.5-10.7-5.2-16.1l0.9-0.5
		c1.2,2.4,7.3,14.5,5.1,17.2C245.3,194.1,244,194.6,242.7,194.5z"></path><path class="st1" d="M240.7,158.7c5.1,5.1,2.4,14.5,1.7,20.7c-1,8.7-2.2,17.4-3.7,26.1c-0.9,5.5-15.2,4.1-17.6,2.1l-0.1,22.1
		l-30.6-5.2l0.1-32c0,0,14.5,5.5,21.4-5.1c3.8-5.9,6.1-16.2,7.3-24.2c5.6,1.7,11.6-1.5,13.3-7.1c0.1-0.5,0.3-1,0.3-1.5
		C236,155.6,238.9,156.9,240.7,158.7L240.7,158.7z"></path><path class="st2" d="M221.4,230.3l-31.6-5.3l0.2-33.1l0.7,0.2c0.1,0.1,14.2,5.2,20.8-4.9c3.8-5.9,6.1-16.3,7.3-24l0.1-0.6l0.5,0.2
		c2.9,0.8,6,0.4,8.5-1.2c2.4-1.6,4.1-4.1,4.5-7l0.1-0.6l0.6,0.2c2.6,0.7,5,1.9,7.2,3.4v-0.1l0.9,0.9c4.4,4.4,3.2,11.8,2.3,17.7
		c-0.2,1.2-0.4,2.3-0.5,3.4c-1,8.6-2.2,17.4-3.7,26.1c-0.2,1.5-1.4,2.6-3.3,3.4c-4.2,1.6-11.4,0.8-14.3-0.5L221.4,230.3z
		 M190.9,224.1l29.6,5l0.1-22.6l0.8,0.7c1.6,1.3,9.7,2.4,14.1,0.8c1.6-0.6,2.5-1.5,2.7-2.6c1.4-8.7,2.6-17.5,3.6-26.1
		c0.1-1.1,0.3-2.2,0.5-3.4c0.9-5.6,2-12.5-1.8-16.6l-0.2-0.2c-1.4-1.4-3.8-2.7-7.1-3.8c-0.6,2.9-2.3,5.5-4.8,7.1
		c-2.6,1.7-5.8,2.2-8.8,1.5c-1.2,7.7-3.5,17.9-7.3,23.8c-6.1,9.5-18.3,6.5-21.3,5.6L190.9,224.1z"></path><path class="st0" d="M241,191.8c0,0-18.6-9.5-20.4,4.7c-0.4,3.5-0.8,9.3-0.1,11.7s18.8,4.3,19.4-0.4
		C240.8,202.6,241.1,197.2,241,191.8z"></path><path class="st1" d="M236.9,200.3c-3.5-1.1-6.8-2.4-10.1-4"></path><path class="st2" d="M236.7,200.8c-3.5-1.1-6.9-2.4-10.1-4l0.5-0.9c3.2,1.6,6.6,2.9,10,3.9L236.7,200.8z"></path><path class="st1" d="M221.5,173.8c-0.7-1.6-1.6-3-2.7-4.3c-1.1-1.3-2.8-2-4.5-2c-1.5,0.2-2.9,1.1-3.7,2.3c-0.8,1.3-1.4,2.7-1.6,4.2
		c-0.7,4.1,1.7,10.9,4.9,13.7c1.8,1.7,5.1,0.7,5.1,0.6"></path><path class="st2" d="M216.8,189.2c-1.2,0.1-2.4-0.3-3.4-1.1c-3.3-3-5.7-9.9-5-14.2c0.2-1.6,0.8-3.1,1.6-4.4
		c0.9-1.4,2.4-2.3,4.1-2.6c1.9-0.1,3.7,0.7,5,2.1c1.2,1.3,2.1,2.8,2.8,4.4l-0.9,0.4c-0.7-1.5-1.6-2.9-2.6-4.2
		c-1-1.2-2.6-1.8-4.1-1.8c-1.4,0.2-2.6,1-3.4,2.1c-0.8,1.2-1.3,2.6-1.5,4c-0.7,3.9,1.7,10.5,4.7,13.3c1.5,1.4,4.2,0.7,4.5,0.6
		l0.2,0.4l0.4-0.3v0.7C218.5,189.2,217.6,189.3,216.8,189.2z"></path><ellipse class="st2" transform="matrix(5.460159e-02 -0.9985 0.9985 5.460159e-02 48.7882 404.5124)" cx="238" cy="176.5" rx="3.1" ry="1.2"></ellipse><path class="st3" d="M145.2,359.3c0,0,1.5-102.1,16.8-125.6s55-28.8,74-14.8s14.7,140.4,14.7,140.4H145.2z"></path><path class="st3" d="M258.6,225.6c13.1,10.9,26.8,66.4,26.8,66.4l-41.8,9.4l-20.8-88.6C222.8,212.9,245.5,214.8,258.6,225.6z"></path><path class="st3" d="M177.8,219.2c0,0-19.1,2.2-29.2,23.1c-5.5,11.4-19.5,48.1-19.5,48.1l42.1,4.9L177.8,219.2L177.8,219.2z"></path></g><g id="Chair"><g id="Chair-2"><path class="st2" d="M147,328.1h69.3c8.5,0,15.4-6.9,15.4-15.4c0-0.7,0-1.3-0.1-2l-7.6-58.3c-1-7.7-7.6-13.4-15.3-13.4h-69.3
			c-8.5,0-15.4,6.9-15.4,15.4c0,0.7,0,1.3,0.1,2l7.6,58.3C132.7,322.4,139.3,328.1,147,328.1z"></path><path class="st2" d="M191.5,290.6c0,0-8.3,9.7-8.6,13.4s16.4,87.3,16.4,87.3l-23.7-6.6c0,0-16.4-78-14.8-83.9s11.3-13.6,11.3-13.6
			L191.5,290.6L191.5,290.6z"></path><path class="st2" d="M271.3,382.5c5,0,9.1,4.1,9.1,9.1v17.6c0,5-4.1,9.1-9.1,9.1H150.7c-5,0-9.1-4.1-9.1-9.1l0,0v-17.6
			c0-5,4.1-9.1,9.1-9.1H271.3z"></path></g><path class="st1" d="M171.2,364c-0.4,0-0.7-0.3-0.7-0.6c-5.3-26.5-11.5-59-10.4-62.9c1.6-6.1,11.2-13.7,11.6-14
		c0.3-0.2,0.8-0.2,1.1,0.1c0.3,0.3,0.2,0.8-0.1,1.1c-0.1,0.1-9.6,7.5-11.1,13.2c-0.7,2.8,3.1,25.5,10.5,62.2
		c0.1,0.4-0.2,0.8-0.6,0.9L171.2,364z"></path><path class="st1" d="M192.9,360.1c-0.4,0-0.7-0.3-0.7-0.6c-6.9-35.1-10.3-53.9-10.1-55.6c0.4-3.8,7.9-12.8,8.8-13.8
		c0.3-0.3,0.8-0.3,1.1-0.1c0.3,0.3,0.3,0.8,0.1,1.1l0,0c-2.3,2.7-8.2,10.1-8.4,13c-0.1,0.9,1.1,9.3,10.1,55.2
		c0.1,0.4-0.2,0.8-0.6,0.9L192.9,360.1z"></path></g></svg>